Coordinates
version=1
nRows=5
nColumns=40
inDegrees=yes

Units are S.I. units (second, meters, Newtons, ...)
If the header above contains a line with 'inDegrees', this indicates whether rotational values are in degrees (yes) or radians (no).

endheader
time	pelvis_tilt	pelvis_list	pelvis_rotation	pelvis_tx	pelvis_ty	pelvis_tz	hip_flexion_r	hip_adduction_r	hip_rotation_r	knee_angle_r	knee_angle_r_beta	ankle_angle_r	subtalar_angle_r	mtp_angle_r	hip_flexion_l	hip_adduction_l	hip_rotation_l	knee_angle_l	knee_angle_l_beta	ankle_angle_l	subtalar_angle_l	mtp_angle_l	lumbar_extension	lumbar_bending	lumbar_rotation	arm_flex_r	arm_add_r	arm_rot_r	elbow_flex_r	pro_sup_r	wrist_flex_r	wrist_dev_r	arm_flex_l	arm_add_l	arm_rot_l	elbow_flex_l	pro_sup_l	wrist_flex_l	wrist_dev_l
      4.80000000	    -15.04700021	      0.38593641	      7.25714277	     -0.35852562	      0.86499479	     -0.79365055	     55.40859965	     -3.59088666	     -8.33656945	     77.36356930	      1.35024901	     29.23413050	      0.00000000	      0.00000000	     29.12540401	     -9.17551653	     -3.47412614	    103.78361764	      1.81136584	    -22.94238850	      0.00000000	      0.00000000	     -5.64775299	      5.82321017	      0.04204769	     89.96139756	    -14.48897960	     18.68780407	     46.53509096	     68.55001055	      0.00000000	      0.00000000	     89.96119890	     -4.42108995	     17.62877791	     45.35508816	     68.29996129	      0.00000000	      0.00000000
      4.80500000	    -15.02952500	      0.48963131	      7.26022664	     -0.35843866	      0.86471443	     -0.79384508	     55.42998258	     -3.65427331	     -8.21594935	     77.46993670	      1.35210547	     29.18690438	      0.00000000	      0.00000000	     29.06793497	     -9.00999343	     -3.56569040	    103.78981446	      1.81147399	    -22.84676103	      0.00000000	      0.00000000	     -5.69723672	      5.73293205	      0.07707060	     89.96138093	    -14.48497564	     17.18755402	     46.17666554	     81.81110502	      0.00000000	      0.00000000	     89.96127982	     -4.36396009	     16.33792477	     44.92986773	     81.21188002	      0.00000000	      0.00000000
      4.81000000	    -15.05651513	      0.50767514	      7.27549116	     -0.35853774	      0.86424803	     -0.79391745	     55.51642652	     -3.65167995	     -8.14897458	     77.56288282	      1.35372768	     29.21241669	      0.00000000	      0.00000000	     29.12333746	     -8.94696663	     -3.63036456	    103.88136506	      1.81307185	    -22.98642147	      0.00000000	      0.00000000	     -5.71494421	      5.71164579	      0.08145965	     89.96142559	    -14.48703142	     17.11294805	     46.22745494	     81.59210840	      0.00000000	      0.00000000	     89.96120319	     -4.34281709	     16.31044769	     44.90674892	     81.58514353	      0.00000000	      0.00000000
      4.81500000	    -15.10566453	      0.50600231	      7.30530125	     -0.35868212	      0.86372835	     -0.79392122	     55.62782610	     -3.64162175	     -8.09413527	     77.65665641	      1.35536434	     29.26314993	      0.00000000	      0.00000000	     29.20888430	     -8.91188547	     -3.66457949	    103.94325184	      1.81415198	    -22.98470640	      0.00000000	      0.00000000	     -5.69651046	      5.70480432	      0.09196127	     89.96144698	    -14.53258598	     17.10687162	     46.27653639	     81.58796631	      0.00000000	      0.00000000	     89.96127572	     -4.32711378	     16.37533877	     44.87892602	     81.45316640	      0.00000000	      0.00000000
      4.82000000	    -15.10596974	      0.49373563	      7.34565092	     -0.35872199	      0.86321761	     -0.79396024	     55.67011083	     -3.63238252	     -8.08389336	     77.74512477	      1.35690840	     29.46632222	      0.00000000	      0.00000000	     29.23141402	     -8.90018174	     -3.68152824	    104.02716485	      1.81561654	    -22.95758524	      0.00000000	      0.00000000	     -5.72376213	      5.70893721	      0.11364038	     89.96152035	    -14.60803804	     17.56534122	     46.36945600	     77.78257114	      0.00000000	      0.00000000	     89.96126342	     -4.27528900	     16.82833355	     44.96447223	     77.63216499	      0.00000000	      0.00000000
